HIERARCHY
ROOT Hips
{
     OFFSET 1.88212 96.90440 -13.34250
     CHANNELS 6 Xposition Yposition Zposition Zrotation Xrotation Yrotation
     JOINT Spine
     {
          OFFSET 0.00000 11.89050 0.00000
          CHANNELS 3 Zrotation Xrotation Yrotation
          JOINT Spine1
          {
               OFFSET -0.00000 25.65740 0.12766
               CHANNELS 3 Zrotation Xrotation Yrotation
               JOINT HEad
               {
                    OFFSET 0.00000 8.73416 0.01134
                    CHANNELS 3 Zrotation Xrotation Yrotation
                    End Site
                    {
                         OFFSET -0.29000 12.77420 2.51395
                    }
               }
               JOINT LeftShoulder1
               {
                    OFFSET 8.99000 -0.36225 -0.22000
                    CHANNELS 3 Zrotation Xrotation Yrotation
                    JOINT LeftArm
                    {
                         OFFSET 10.28270 -0.00338 0.32212
                         CHANNELS 3 Zrotation Xrotation Yrotation
                         JOINT LeftForeArm
                         {
                              OFFSET 32.76690 0.09914 -1.42434
                              CHANNELS 3 Zrotation Xrotation Yrotation
                              JOINT LeftHand
                              {
                                   OFFSET 27.56430 0.08536 1.02216
                                   CHANNELS 3 Zrotation Xrotation Yrotation
                                   End Site
                                   {
                                        OFFSET 16.74430 -0.60000 1.50291
                                   }
                              }
                         }
                    }
               }
               JOINT RightShoulder
               {
                    OFFSET -8.99000 -0.36225 -0.22000
                    CHANNELS 3 Zrotation Xrotation Yrotation
                    JOINT RightArm
                    {
                         OFFSET -10.28270 -0.00338 0.32212
                         CHANNELS 3 Zrotation Xrotation Yrotation
                         JOINT RightForeArm
                         {
                              OFFSET -32.89710 0.09914 -1.42434
                              CHANNELS 3 Zrotation Xrotation Yrotation
                              JOINT RightHand
                              {
                                   OFFSET -27.49210 0.08536 1.02216
                                   CHANNELS 3 Zrotation Xrotation Yrotation
                                   End Site
                                   {
                                        OFFSET -16.63120 -0.60000 1.50291
                                   }
                              }
                         }
                    }
               }
          }
     }
     JOINT LeftUpLeg
     {
          OFFSET 8.94580 -8.66707 0.10165
          CHANNELS 3 Zrotation Xrotation Yrotation
          JOINT LeftLeg
          {
               OFFSET 0.00000 -44.42270 1.37270
               CHANNELS 3 Zrotation Xrotation Yrotation
               JOINT LeftFoot
               {
                    OFFSET -0.25355 -42.09240 -1.46059
                    CHANNELS 3 Zrotation Xrotation Yrotation
                    JOINT LeftToes
                    {
                         OFFSET -0.04000 -4.41509 8.49910
                         CHANNELS 3 Zrotation Xrotation Yrotation
                         End Site
                         {
                              OFFSET 0.08000 -0.04745 9.77979
                         }
                    }
               }
          }
     }
     JOINT RightUpLeg
     {
          OFFSET -8.94580 -8.66707 0.10165
          CHANNELS 3 Zrotation Xrotation Yrotation
          JOINT RightLeg
          {
               OFFSET 0.00000 -44.42270 1.37270
               CHANNELS 3 Zrotation Xrotation Yrotation
               JOINT RightFoot
               {
                    OFFSET 0.25355 -42.09240 -1.46059
                    CHANNELS 3 Zrotation Xrotation Yrotation
                    JOINT RightToes
                    {
                         OFFSET 0.04000 -4.41509 8.49910
                         CHANNELS 3 Zrotation Xrotation Yrotation
                         End Site
                         {
                              OFFSET -0.08000 -0.13745 9.77979
                         }
                    }
               }
          }
     }
}
MOTION
Frames: 20
Frame Time: 0.01667
59.80863 91.76837 -29.10398 6.67659 11.00717 156.86304 1.00281 23.06982 -32.54264 -0.01366 0.00105 0.09960 0.78398 10.91624 11.70811 -10.71520 -0.96029 61.16736 -99.92598 -24.34384 -83.47359 -72.85683 65.10844 -55.92432 29.32854 12.78492 -13.15770 -2.14094 5.32511 43.20901 108.30151 -41.12732 71.95254 11.67110 50.29970 126.81428 47.62800 17.59693 -24.30793 9.92642 -14.21744 -29.61088 -10.85161 6.11393 66.96915 11.96100 -0.09264 0.00074 -10.36612 1.57415 -72.97940 -27.86383 4.48305 15.79544 59.12853 43.44175 -38.74035 -28.40600 -0.04951 -0.03409 8.36642 -44.70025 7.80327 
60.01557 91.21306 -28.86002 4.72885 13.07422 164.38176 1.57835 25.21924 -35.66471 -0.01222 -0.00194 0.08177 2.15666 8.52010 11.17832 -10.24608 -0.93905 58.62706 -103.39448 -32.88302 -84.60536 -65.96019 65.16525 -64.40010 27.53206 8.39723 -22.16571 -7.89227 -1.80422 49.14451 113.12053 -42.77013 78.90705 -5.55412 41.28833 128.10498 49.51936 13.23993 -42.42567 6.01147 -14.10195 -33.50660 -10.84280 5.48364 66.60390 14.59356 -0.07565 0.00839 -12.02490 2.19877 -75.01143 -27.87012 7.61929 13.50006 60.24775 42.94547 -40.86930 -27.94720 -0.00279 -0.02778 6.39761 -45.75334 4.23157 
60.26384 90.60781 -28.57261 2.80997 14.73874 171.01503 2.22777 27.05299 -36.62329 -0.01386 -0.00092 0.06719 3.45376 5.64442 10.58192 -9.81649 -0.46712 54.89542 -106.92812 -41.69477 -86.40063 -61.46416 63.01809 -69.99092 18.18957 -2.97777 -18.36717 -13.64645 -9.14382 52.88649 116.03074 -44.53761 84.21601 -20.34865 33.09011 121.31972 44.58915 10.90587 -50.24022 2.83106 -13.90430 -35.40181 -11.32385 5.30228 64.98734 17.11533 -0.06155 0.01263 -13.52682 2.51596 -76.67678 -27.65149 10.31894 11.62637 60.83408 42.04586 -43.36600 -27.12276 0.00303 -0.02103 5.59395 -46.66907 4.49474 
60.56225 89.97693 -28.25468 1.00150 16.07226 176.76747 2.78746 28.59778 -35.56778 -0.01509 -0.00056 0.05604 4.52729 2.96746 8.51929 -9.35720 0.37757 50.18136 -109.46029 -46.61435 -87.54993 -60.72433 62.27805 -72.07290 28.43955 10.57314 -17.91034 -19.86214 -16.11497 54.78580 117.32313 -46.60843 87.75423 -32.84997 28.73081 107.96764 39.42651 -12.16339 -38.49406 0.35834 -13.77944 -35.42817 -12.24548 5.63654 62.26529 19.46434 -0.04812 0.01556 -14.90305 2.54980 -77.96959 -27.30935 12.62090 10.15205 61.10516 41.04785 -46.12086 -26.63346 0.01096 -0.01421 5.43062 -47.54423 4.61395 
60.92632 89.33015 -27.91866 -0.64307 17.13924 181.68736 3.14154 29.87945 -32.66917 -0.01550 0.00080 0.04670 5.32259 0.50384 5.12668 -8.79430 1.49000 44.52773 -110.90688 -49.06660 -88.01964 -61.35041 62.27847 -72.56873 22.03741 2.42959 -16.33241 -26.96161 -22.27194 54.87133 117.32376 -48.74049 89.49375 -38.83344 28.97891 88.42265 34.36796 2.98213 -28.09948 -1.43477 -13.82450 -33.75772 -13.51233 6.58283 58.58883 21.57980 -0.03578 0.01711 -16.15886 2.32374 -78.93034 -26.89667 14.56878 9.03491 61.23324 40.06991 -49.00145 -26.12017 0.01275 -0.00779 5.87015 -48.40853 6.01220 
61.36576 88.67593 -27.58585 -2.08896 17.98937 185.84885 3.17155 30.93990 -28.08375 -0.02380 0.00468 0.03942 5.89773 -1.73147 0.52796 -8.05714 2.75668 37.93265 -111.41537 -49.96454 -88.00010 -62.29048 62.51589 -72.33006 24.19878 4.85577 -17.57722 -29.49820 -18.84357 47.24393 104.80335 -42.17197 87.54407 -36.24612 28.50483 64.78477 40.00303 -21.29259 -20.40997 -2.57747 -14.09486 -30.57834 -14.99104 8.22274 54.11119 23.43196 -0.02542 0.01740 -17.28999 1.87177 -79.57854 -26.43298 16.20575 8.22000 61.31780 39.15781 -51.84028 -25.80573 0.01145 -0.00247 6.79715 -49.27876 7.59525 
61.88610 88.02662 -27.28261 -3.31721 18.66175 189.33104 2.79661 31.78992 -21.98813 -0.02813 0.00886 0.03200 6.29427 -3.73323 -5.12654 -7.05401 4.16152 30.29641 -111.41468 -49.91792 -87.83945 -63.04002 62.86420 -71.72964 21.14016 1.18159 -16.55780 -31.29577 -14.29355 39.03271 92.98806 -35.31810 87.45537 -30.74426 21.39851 41.48294 31.97174 -4.61739 -20.41728 -3.09855 -14.61124 -26.06622 -16.52612 10.60710 48.97644 25.02184 -0.01736 0.01678 -18.26741 1.22748 -79.97285 -25.91912 17.57151 7.65312 61.41139 38.31510 -54.47790 -25.59272 0.00931 0.00196 8.04566 -50.11910 9.56917 
62.48271 87.40412 -27.04835 -4.32858 19.18915 192.19839 1.91912 32.44789 -14.53453 -0.03304 0.01852 0.02757 6.59727 -5.54748 -11.67965 -5.61358 5.64766 21.61385 -111.27559 -49.30346 -87.82949 -63.44280 63.18501 -70.91290 22.53861 3.21096 -17.07204 -31.74127 -8.63758 30.42849 80.63013 -29.03260 87.77761 -30.14597 11.97749 24.59700 35.32481 -2.72197 -15.93036 -3.36428 -15.00891 -21.59733 -17.67733 13.15580 44.33938 26.34788 -0.01126 0.01428 -19.06476 0.49847 -80.18094 -25.35721 18.70623 7.29588 61.52436 37.53926 -56.79476 -25.50841 0.00743 0.00482 9.50896 -50.94352 11.60720 
63.14350 86.83526 -26.92267 -5.13970 19.59369 194.49942 0.37150 32.93861 -5.95470 -0.04491 0.03423 0.01693 6.97045 -7.25305 -18.82909 -3.47700 7.04542 12.05624 -111.27494 -48.33941 -88.12878 -63.55680 63.45929 -69.79253 21.05031 1.22045 -16.51504 -30.58856 -2.51559 21.44761 72.60434 -25.08606 88.64799 -31.56314 4.83342 15.44523 16.82201 6.97845 0.03703 -3.41320 -15.34277 -17.23441 -18.41206 15.74426 40.18839 27.39481 -0.00685 0.01069 -19.67033 -0.25082 -80.27789 -24.77166 19.64529 7.12479 61.65224 36.82644 -58.72701 -25.46734 0.00705 0.00639 11.05905 -51.73720 13.73556 
63.85277 86.34444 -26.92959 -5.77062 19.88886 196.27206 -2.09089 33.42658 3.09665 -0.06340 0.06491 -0.01834 7.71702 -9.11171 -25.76114 -0.43709 7.85684 2.37807 -111.55116 -47.14638 -88.76337 -63.54302 63.62054 -68.27975 22.06205 2.32258 -16.91216 -27.49949 3.02380 12.31640 70.76486 -23.44605 87.09364 -31.38771 -1.50248 20.59520 13.83966 13.32673 11.50885 -3.27246 -15.64658 -13.02444 -18.73587 18.26596 36.49460 28.14460 -0.00343 0.00687 -20.08969 -1.01641 -80.33330 -24.19298 20.41283 7.11919 61.78615 36.17580 -60.26415 -25.41167 0.00772 0.00696 12.61362 -52.44536 15.85102 
64.56615 85.94698 -27.08101 -6.21955 20.07925 197.53934 -4.25352 33.15010 10.70102 0.00316 0.00627 -0.08835 8.03952 -10.15729 -31.34389 2.30846 8.80459 -5.81248 -111.84633 -42.01966 -87.83907 -58.00364 64.72348 -68.78862 21.21899 1.05898 -16.75193 -23.56915 7.82527 4.27935 73.39877 -23.52324 85.21230 -27.50551 -5.31766 34.10144 17.65710 11.75228 -6.12714 -2.95963 -15.94411 -9.01195 -18.68131 20.64192 33.22792 28.59048 -0.00058 0.00340 -20.33750 -1.82384 -80.39823 -23.64211 21.01434 7.25672 61.92457 35.58828 -61.41881 -25.25924 0.00874 0.00723 14.05003 -52.94369 17.87602 
65.23304 85.65604 -27.36642 -6.47281 20.17039 198.31351 -6.69850 33.18089 16.12481 -0.01829 0.08184 -0.15751 8.86148 -11.51702 -34.38730 4.97144 8.78675 -11.81178 -112.34828 -38.89659 -87.96597 -65.19701 63.03408 -60.82981 21.79730 6.60995 -17.25161 -9.17457 14.60514 -9.31087 72.65285 -21.14642 90.76385 -19.11522 -5.50053 51.25014 10.42908 9.59163 10.26931 -2.49384 -16.24990 -5.24155 -18.30481 22.82066 30.37335 28.74281 0.00179 0.00054 -20.42506 -2.69633 -80.49823 -23.13922 21.44347 7.51955 62.07347 35.07158 -62.20917 -24.96074 0.00967 0.00751 15.22882 -53.07505 19.64544 
65.81429 85.47296 -27.75780 -6.51774 20.17121 198.59920 -9.02539 33.40852 19.27364 0.01024 0.05867 -0.15801 9.75525 -12.73435 -35.13672 7.08605 8.48043 -15.77964 -113.06685 -37.10149 -88.71432 -68.71821 61.45872 -56.23993 20.97511 8.50926 -17.25508 -5.04328 14.24934 -13.23138 80.26014 -22.86689 88.35394 -7.06092 -1.41672 67.75232 24.73545 4.40468 2.42014 -1.95710 -16.64610 -2.83110 -18.07800 24.53583 29.06747 28.60452 0.00373 -0.00189 -20.35915 -3.65033 -80.64279 -22.71086 21.68573 7.89889 62.24664 34.64256 -62.66884 -24.50285 0.01072 0.00767 15.99844 -52.72649 20.97993 
66.26360 85.39900 -28.22340 -5.37321 19.67213 196.35001 -11.31479 32.79566 22.26308 0.01929 0.05056 -0.13598 10.69578 -13.77197 -33.90495 9.10467 11.60891 -28.01520 -119.38027 -43.85934 -99.64684 -70.72011 60.39261 -53.56945 17.14705 -7.31705 -17.13571 8.16965 11.74671 -22.92130 80.23588 -19.42252 89.22685 6.40566 6.85097 79.44147 -2.05676 9.59637 4.57782 -0.08051 -17.78126 0.17443 -18.05033 25.85395 29.14583 28.17218 0.00488 -0.00408 -20.15403 -4.72434 -80.83180 -22.47821 20.65379 8.84718 62.25948 35.08189 -62.00069 -24.00418 0.01260 0.00718 16.26433 -51.91794 21.74724 
66.55076 85.41685 -28.73857 -3.33539 18.74745 192.05180 -13.29212 31.50174 24.85134 0.02672 0.04369 -0.11410 11.58962 -14.55224 -31.00810 9.97926 10.76850 -27.27041 -119.60874 -42.73956 -99.51369 -71.89655 59.85931 -51.83227 19.40515 7.49167 -17.41343 19.05898 7.27126 -30.11818 80.64532 -15.14583 88.67887 15.24595 18.18162 85.21449 8.75889 11.72041 -2.41445 2.98759 -19.24326 3.64688 -18.26445 26.87586 30.46277 27.44788 0.00498 -0.00642 -19.83823 -5.95798 -81.05943 -22.38741 18.42730 10.19680 64.38866 37.23109 -62.19016 -17.83254 0.08213 0.14333 10.07599 -52.78382 21.63793 
66.70692 85.49706 -29.26583 -1.22136 17.61389 187.33885 -14.98607 29.93022 27.11963 0.01089 0.01237 -0.03424 12.32207 -14.98808 -28.20885 11.97731 10.36221 -29.62582 -123.13585 -44.03180 -102.67147 -72.91383 59.49163 -50.33429 18.22412 10.21645 -17.39403 26.43839 3.81894 -33.73982 83.66900 -13.21939 86.71646 23.69426 30.06664 87.67302 14.00945 13.89464 -7.27186 6.42993 -20.43035 7.29023 -18.53862 27.87353 32.07430 26.54888 0.00409 -0.00883 -19.51407 -7.31915 -81.29221 -22.19498 15.78312 11.55411 66.21835 39.42175 -62.25333 -14.54954 0.00168 0.05668 6.71668 -52.96325 21.61571 
66.76125 85.62125 -29.77077 0.93539 16.28201 182.23567 -16.33239 28.13479 29.08160 0.01412 0.00740 -0.02980 12.88346 -15.11052 -25.38848 14.79595 10.09124 -33.81555 -129.65817 -46.70904 -108.66768 -76.82469 59.19411 -47.16039 16.59378 7.96292 -17.18838 31.55794 1.59867 -35.16919 88.24368 -13.33533 83.59683 32.89691 41.72411 87.08922 16.41837 16.60670 -10.39068 10.24706 -21.28450 11.10203 -18.89441 28.84755 33.97617 25.50501 0.00391 -0.01067 -19.17644 -8.76960 -81.59132 -21.89820 12.83347 12.94133 67.53135 41.15339 -62.44352 -13.43666 0.00840 0.01510 5.22057 -52.55762 21.71558 
66.73177 85.77814 -30.23154 3.09905 14.76091 176.77370 -17.30262 26.20002 30.76469 0.01686 0.00733 -0.02789 13.27819 -14.95047 -22.62057 18.28420 9.64382 -39.14315 -139.40959 -49.78710 -117.57222 -80.44569 58.92952 -44.47709 16.25835 7.59945 -16.84469 36.51667 -1.43740 -37.85244 91.10451 -12.71134 78.98421 42.71691 51.36028 83.71356 14.34222 21.47887 -6.57604 14.40796 -21.73730 15.04636 -19.35350 29.78420 36.16436 24.34824 0.00380 -0.01167 -18.81847 -10.27684 -81.98452 -21.48971 9.65656 14.37395 68.77231 42.68275 -63.66417 -14.07482 0.01466 -0.02690 2.04464 -50.02246 15.77616 
66.71584 86.44376 -30.62108 4.85212 13.06692 171.05968 -18.27220 24.11600 32.19742 0.01727 0.00353 -0.02782 13.57998 -14.16524 -19.50847 20.20982 9.36192 -41.17025 -146.19615 -51.42535 -123.78662 -80.82763 59.19446 -43.83828 17.02896 12.53735 -12.72760 39.44038 -2.73804 -38.15099 93.66309 -13.17795 74.36471 51.26776 57.75718 77.70319 14.20394 24.32162 -4.09180 18.47010 -21.53319 19.07689 -19.57826 30.73432 37.79110 22.69253 -0.00163 -0.00904 -14.14231 -8.13995 -78.33237 -20.83802 6.49772 15.79066 67.50903 43.06295 -63.35562 -15.10865 -0.00659 0.01226 1.56850 -49.09610 9.20720 
66.64428 86.88541 -31.00006 6.28668 11.34104 165.63341 -18.92180 22.16926 32.84641 0.01667 0.00267 -0.02733 13.66987 -12.78637 -16.07688 20.94648 9.33416 -40.62261 -150.36389 -52.49601 -127.51260 -78.37885 59.96877 -45.12080 17.85909 19.72107 -7.41313 40.91093 -2.63749 -36.79039 95.61546 -14.08918 70.18050 56.63370 61.58029 72.10847 14.92253 25.74109 -1.66469 22.17504 -20.87952 22.50429 -19.68853 31.61834 38.96188 20.69660 -0.01217 -0.00710 -10.86649 -6.45740 -75.21073 -19.84142 3.86827 16.77966 63.87193 42.41974 -61.36319 -16.37869 -0.01919 0.03169 3.05035 -48.89608 2.74596 
